# xmcd
#
# Track frame offsets:
#       183
#       12613
#       25733
#       39150
#       50623
#       63250
#       74123
#       84935
#       97260
#       109555
#       120368
#       131345
#       142845
#       155065
#
# Disc length: 2241 seconds
#
# Revision: 1
# Processed by: cddbd v1.4PL0 Copyright (c) Steve Scherf et al.
# Submitted via: CD-DA_X-Tractor v0.21
#
DISCID=b708bf0e
DTITLE=Hank Williams - The Country Store Collection
DYEAR=1900
DGENRE=
TTITLE0=Lovesick Blues
TTITLE1=Mind your old business
TTITLE2=You're gonna change
TTITLE3=My bucket's got a hole in it
TTITLE4=I just don't like this kind of living
TTITLE5=Why don't you love me
TTITLE6=Moanin' the blues
TTITLE7=Cold, cold heart
TTITLE8=Howlin' at the moon
TTITLE9=I can't help it
TTITLE10=I'll never get out of this world alive
TTITLE11=Baby we're really in love
TTITLE12=Lost highway
TTITLE13=Jambalaya
EXTD=
EXTT0=
EXTT1=
EXTT2=
EXTT3=
EXTT4=
EXTT5=
EXTT6=
EXTT7=
EXTT8=
EXTT9=
EXTT10=
EXTT11=
EXTT12=
EXTT13=
PLAYORDER=
